<svg width="28" height="28" viewBox="2.051 3 23.898 22" fill="none" xmlns="http://www.w3.org/2000/svg">
<path d="M9.91488 20.3405L10 20H12.0721C13.7928 20 15.2928 18.8289 15.7101 17.1595L18 8H22.1971C24.6367 8 26.4268 10.2927 25.8351 12.6595L23.6968 21.2127C23.1404 23.4385 21.1405 25 18.8461 25H13.5529C11.1133 25 9.32318 22.7073 9.91488 20.3405Z" fill="url(#paint0_radial_9772_1494)"/>
<path d="M9.91488 20.3405L10 20H12.0721C13.7928 20 15.2928 18.8289 15.7101 17.1595L18 8H22.1971C24.6367 8 26.4268 10.2927 25.8351 12.6595L23.6968 21.2127C23.1404 23.4385 21.1405 25 18.8461 25H13.5529C11.1133 25 9.32318 22.7073 9.91488 20.3405Z" fill="url(#paint1_linear_9772_1494)"/>
<path d="M18.0851 7.65951L18 8H15.9279C14.2072 8 12.7072 9.17111 12.2899 10.8405L10 20H5.80292C3.36328 20 1.57318 17.7073 2.16488 15.3405L4.30318 6.78732C4.85963 4.56149 6.85955 3 9.15389 3H14.4471C16.8867 3 18.6768 5.29271 18.0851 7.65951Z" fill="url(#paint2_linear_9772_1494)"/>
<path d="M18.0851 7.65951L18 8H15.9279C14.2072 8 12.7072 9.17111 12.2899 10.8405L10 20H5.80292C3.36328 20 1.57318 17.7073 2.16488 15.3405L4.30318 6.78732C4.85963 4.56149 6.85955 3 9.15389 3H14.4471C16.8867 3 18.6768 5.29271 18.0851 7.65951Z" fill="url(#paint3_linear_9772_1494)"/>
<path d="M18.0851 7.65951L18 8H15.9279C14.2072 8 12.7072 9.17111 12.2899 10.8405L10 20H5.80292C3.36328 20 1.57318 17.7073 2.16488 15.3405L4.30318 6.78732C4.85963 4.56149 6.85955 3 9.15389 3H14.4471C16.8867 3 18.6768 5.29271 18.0851 7.65951Z" fill="url(#paint4_linear_9772_1494)"/>
<path d="M18.0851 7.65951L18 8H15.9279C14.2072 8 12.7072 9.17111 12.2899 10.8405L10 20H5.80292C3.36328 20 1.57318 17.7073 2.16488 15.3405L4.30318 6.78732C4.85963 4.56149 6.85955 3 9.15389 3H14.4471C16.8867 3 18.6768 5.29271 18.0851 7.65951Z" fill="url(#paint5_linear_9772_1494)"/>
<path d="M18.0851 7.65951L18 8H15.9279C14.2072 8 12.7072 9.17111 12.2899 10.8405L10 20H5.80292C3.36328 20 1.57318 17.7073 2.16488 15.3405L4.30318 6.78732C4.85963 4.56149 6.85955 3 9.15389 3H14.4471C16.8867 3 18.6768 5.29271 18.0851 7.65951Z" fill="url(#paint6_radial_9772_1494)"/>
<path d="M18.0851 7.65951L18 8H15.9279C14.2072 8 12.7072 9.17111 12.2899 10.8405L10 20H5.80292C3.36328 20 1.57318 17.7073 2.16488 15.3405L4.30318 6.78732C4.85963 4.56149 6.85955 3 9.15389 3H14.4471C16.8867 3 18.6768 5.29271 18.0851 7.65951Z" fill="url(#paint7_linear_9772_1494)"/>
<defs>
<radialGradient id="paint0_radial_9772_1494" cx="0" cy="0" r="1" gradientTransform="matrix(7.87605 -21.0102 46.1789 18.1252 12.3882 26.3523)" gradientUnits="userSpaceOnUse">
<stop offset="0.0739513" stop-color="#FFB152"/>
<stop offset="0.5" stop-color="#F2598A"/>
<stop offset="0.94786" stop-color="#8C48FF"/>
</radialGradient>
<linearGradient id="paint1_linear_9772_1494" x1="19.7197" y1="6.9697" x2="19.7434" y2="11.9925" gradientUnits="userSpaceOnUse">
<stop offset="0.109668" stop-color="#F8ADFA"/>
<stop offset="0.708063" stop-color="#A86EDD" stop-opacity="0"/>
</linearGradient>
<linearGradient id="paint2_linear_9772_1494" x1="7.96836" y1="5.05988" x2="8.13748" y2="20.7426" gradientUnits="userSpaceOnUse">
<stop offset="0.178346" stop-color="#109DF2"/>
<stop offset="0.720089" stop-color="#AAD445"/>
<stop offset="0.965335" stop-color="#FFD725"/>
</linearGradient>
<linearGradient id="paint3_linear_9772_1494" x1="9.29567" y1="3" x2="9.19885" y2="20.0001" gradientUnits="userSpaceOnUse">
<stop stop-color="#3DCBFF"/>
<stop offset="0.246674" stop-color="#0588F7" stop-opacity="0"/>
</linearGradient>
<linearGradient id="paint4_linear_9772_1494" x1="7.96836" y1="5.05988" x2="8.13748" y2="20.7426" gradientUnits="userSpaceOnUse">
<stop offset="0.178346" stop-color="#109DF2"/>
<stop offset="0.720089" stop-color="#AAD445"/>
<stop offset="0.965335" stop-color="#FFD000"/>
</linearGradient>
<linearGradient id="paint5_linear_9772_1494" x1="9.29567" y1="3" x2="9.19885" y2="20.0001" gradientUnits="userSpaceOnUse">
<stop stop-color="#3DCBFF"/>
<stop offset="0.246674" stop-color="#0588F7" stop-opacity="0"/>
</linearGradient>
<radialGradient id="paint6_radial_9772_1494" cx="0" cy="0" r="1" gradientTransform="matrix(-9.67446 19.5937 -38.5542 -15.5766 14.4742 3)" gradientUnits="userSpaceOnUse">
<stop offset="0.252408" stop-color="#109DF2"/>
<stop offset="0.720089" stop-color="#AAD445"/>
<stop offset="0.965335" stop-color="#FFD400"/>
</radialGradient>
<linearGradient id="paint7_linear_9772_1494" x1="9.29567" y1="3" x2="9.19885" y2="20.0001" gradientUnits="userSpaceOnUse">
<stop stop-color="#3DCBFF"/>
<stop offset="0.246674" stop-color="#0588F7" stop-opacity="0"/>
</linearGradient>
</defs>
</svg>
